<svg width="35" height="22" viewBox="0 0 35 22" fill="none" xmlns="http://www.w3.org/2000/svg">
<path d="M8.448 17.384C5.92 17.384 3.976 16.928 2.616 16.016C1.272 15.104 0.6 13.928 0.6 12.488C0.6 12.024 0.688 11.584 0.864 11.168C1.056 10.752 1.368 10.392 1.8 10.088C2.136 9.848 2.584 9.672 3.144 9.56C3.704 9.448 4.472 9.392 5.448 9.392H17.712C17.744 9.184 17.76 8.976 17.76 8.768C17.776 8.544 17.784 8.336 17.784 8.144C17.784 7.232 17.648 6.392 17.376 5.624C17.12 4.84 16.688 4.2 16.08 3.704C16.128 3.976 16.152 4.256 16.152 4.544C16.152 5.28 16 5.952 15.696 6.56C15.408 7.168 14.928 7.648 14.256 8C13.584 8.352 12.696 8.528 11.592 8.528C10.776 8.528 10.016 8.384 9.312 8.096C8.624 7.808 8.064 7.376 7.632 6.8C7.216 6.208 7.008 5.472 7.008 4.592C7.008 3.568 7.264 2.736 7.776 2.096C8.304 1.456 9.008 0.984 9.888 0.68C10.768 0.376 11.76 0.224 12.864 0.224C14.288 0.224 15.52 0.44 16.56 0.871999C17.6 1.304 18.464 1.896 19.152 2.648C19.856 3.384 20.376 4.224 20.712 5.168C21.048 6.096 21.216 7.064 21.216 8.072C21.216 8.296 21.208 8.52 21.192 8.744C21.176 8.968 21.152 9.184 21.12 9.392H23.784V0.511999H27.36V11.696C27.696 11.552 28.088 11.432 28.536 11.336C29 11.224 29.544 11.168 30.168 11.168C30.92 11.168 31.632 11.32 32.304 11.624C32.992 11.928 33.552 12.384 33.984 12.992C34.416 13.6 34.632 14.376 34.632 15.32C34.632 16.584 34.24 17.696 33.456 18.656C32.672 19.616 31.52 20.36 30 20.888C28.496 21.432 26.64 21.704 24.432 21.704H24C21.632 21.704 19.824 21.344 18.576 20.624C17.344 19.904 16.728 18.888 16.728 17.576C16.728 17.08 16.872 16.6 17.16 16.136C17.464 15.688 17.896 15.312 18.456 15.008C19.016 14.72 19.688 14.576 20.472 14.576C21.304 14.576 22.16 14.72 23.04 15.008L22.632 17.288C22.376 17.208 22.128 17.144 21.888 17.096C21.648 17.064 21.392 17.048 21.12 17.048C20.336 17.048 19.944 17.288 19.944 17.768C19.944 18.008 20.072 18.232 20.328 18.44C20.584 18.664 21.04 18.84 21.696 18.968C22.352 19.096 23.264 19.16 24.432 19.16H24.576C25.904 19.16 27.064 19.016 28.056 18.728C29.064 18.456 29.84 18.048 30.384 17.504C30.944 16.96 31.224 16.296 31.224 15.512C31.224 14.936 31.048 14.48 30.696 14.144C30.36 13.824 29.856 13.664 29.184 13.664C28.848 13.664 28.52 13.712 28.2 13.808C27.896 13.888 27.616 13.992 27.36 14.12V16.976H23.784V11.936H20.568C19.672 13.648 18.208 14.984 16.176 15.944C14.144 16.904 11.712 17.384 8.88 17.384H8.448ZM10.248 4.448C10.248 4.944 10.384 5.336 10.656 5.624C10.928 5.912 11.312 6.056 11.808 6.056C12.224 6.056 12.584 5.928 12.888 5.672C13.192 5.4 13.344 4.912 13.344 4.208C13.344 3.92 13.312 3.648 13.248 3.392C13.184 3.136 13.096 2.888 12.984 2.648C12.92 2.648 12.856 2.648 12.792 2.648C12.12 2.648 11.528 2.768 11.016 3.008C10.504 3.248 10.248 3.728 10.248 4.448ZM9.144 14.816C11.096 14.816 12.688 14.544 13.92 14C15.152 13.472 16.096 12.784 16.752 11.936H5.712C5.312 11.936 5.008 11.96 4.8 12.008C4.592 12.04 4.432 12.104 4.32 12.2C4.144 12.376 4.056 12.584 4.056 12.824C4.056 13.416 4.44 13.896 5.208 14.264C5.976 14.632 7.192 14.816 8.856 14.816H9.144Z" fill="#E5E5E5"/>
</svg>
