<svg width="25" height="22" viewBox="0 0 25 22" fill="none" xmlns="http://www.w3.org/2000/svg">
<path d="M7.208 21.704C4.824 21.704 3.04 21.208 1.856 20.216C0.688 19.224 0.104 17.88 0.104 16.184C0.104 15.272 0.264 14.488 0.584 13.832C0.904 13.16 1.336 12.6 1.88 12.152C2.696 11.448 3.672 10.976 4.808 10.736C5.96 10.48 7.288 10.352 8.792 10.352H13.64C14.92 10.352 16.08 10.296 17.12 10.184C18.176 10.056 19.056 9.744 19.76 9.248C20.192 8.928 20.528 8.536 20.768 8.072C21.008 7.592 21.128 6.992 21.128 6.272C21.128 5.088 20.824 4.216 20.216 3.656C19.624 3.096 18.904 2.816 18.056 2.816C17.224 2.816 16.576 3.072 16.112 3.584C15.856 3.888 15.664 4.28 15.536 4.76C15.408 5.224 15.344 5.952 15.344 6.944V8.936H11.768V7.328C11.768 6.368 11.632 5.536 11.36 4.832C11.104 4.128 10.656 3.584 10.016 3.2C9.392 2.816 8.512 2.624 7.376 2.624C8 2.88 8.528 3.296 8.96 3.872C9.392 4.432 9.608 5.128 9.608 5.96C9.608 7.144 9.192 8.096 8.36 8.816C7.544 9.536 6.36 9.896 4.808 9.896C3.272 9.896 2.104 9.504 1.304 8.72C0.504 7.92 0.104 6.864 0.104 5.552C0.104 4.432 0.424 3.48 1.064 2.696C1.704 1.896 2.576 1.288 3.68 0.871999C4.784 0.44 6.024 0.224 7.4 0.224C8.504 0.224 9.44 0.336 10.208 0.56C10.976 0.767999 11.616 1.048 12.128 1.4C12.656 1.752 13.096 2.136 13.448 2.552C14.52 1 16.136 0.224 18.296 0.224C19.736 0.224 20.928 0.496 21.872 1.04C22.816 1.568 23.52 2.28 23.984 3.176C24.464 4.056 24.704 5.032 24.704 6.104C24.704 7.448 24.456 8.552 23.96 9.416C23.48 10.28 22.824 10.968 21.992 11.48C21.064 12.024 19.984 12.4 18.752 12.608C17.536 12.816 16.12 12.92 14.504 12.92H8.912C7.808 12.92 6.952 12.992 6.344 13.136C5.736 13.264 5.224 13.472 4.808 13.76C4.056 14.272 3.68 15.056 3.68 16.112C3.68 17.136 4.048 17.896 4.784 18.392C5.536 18.888 6.464 19.136 7.568 19.136C8.352 19.136 9.04 19.032 9.632 18.824C10.224 18.616 10.696 18.288 11.048 17.84C11.272 17.568 11.448 17.224 11.576 16.808C11.704 16.408 11.768 15.824 11.768 15.056V14.408H15.344V15.152C15.344 15.92 15.392 16.496 15.488 16.88C15.584 17.28 15.72 17.616 15.896 17.888C16.216 18.4 16.608 18.736 17.072 18.896C17.552 19.056 17.992 19.136 18.392 19.136C19.288 19.136 19.968 18.88 20.432 18.368C20.896 17.856 21.128 17.16 21.128 16.28C21.128 15.848 21.088 15.416 21.008 14.984C20.928 14.568 20.824 14.2 20.696 13.88L24.128 12.848C24.352 13.344 24.504 13.88 24.584 14.456C24.664 15.032 24.704 15.6 24.704 16.16C24.704 17.856 24.2 19.2 23.192 20.192C22.2 21.2 20.656 21.704 18.56 21.704C17.232 21.704 16.16 21.48 15.344 21.032C14.528 20.6 13.888 20.04 13.424 19.352C12.816 19.976 12.024 20.52 11.048 20.984C10.072 21.464 8.792 21.704 7.208 21.704ZM3.2 5.624C3.2 6.136 3.328 6.576 3.584 6.944C3.84 7.296 4.28 7.472 4.904 7.472C5.464 7.472 5.88 7.328 6.152 7.04C6.424 6.752 6.56 6.376 6.56 5.912C6.56 5.352 6.384 4.848 6.032 4.4C5.68 3.952 5.056 3.672 4.16 3.56C3.792 3.848 3.536 4.176 3.392 4.544C3.264 4.912 3.2 5.272 3.2 5.624Z" fill="#E5E5E5"/>
</svg>
