<svg width="28" height="29" viewBox="0 0 28 29" fill="none" xmlns="http://www.w3.org/2000/svg">
<path d="M6.792 28.704C4.792 28.704 3.272 28.288 2.232 27.456C1.192 26.624 0.672 25.496 0.672 24.072C0.672 23.096 0.912 22.208 1.392 21.408C1.872 20.608 2.536 19.904 3.384 19.296C2.808 18.16 2.392 17.016 2.136 15.864C1.88 14.696 1.752 13.416 1.752 12.024C1.752 10.552 2.008 9.136 2.52 7.776C3.048 6.4 3.848 5.176 4.92 4.104C6.008 3.016 7.384 2.16 9.048 1.536C10.712 0.895999 12.688 0.576 14.976 0.576C17.264 0.576 19.184 0.855999 20.736 1.416C22.304 1.976 23.624 2.792 24.696 3.864C25.464 4.632 26.064 5.464 26.496 6.36C26.928 7.256 27.232 8.28 27.408 9.432C27.6 10.584 27.696 11.936 27.696 13.488V21H24.12V14.952C24.12 13.208 24.032 11.744 23.856 10.56C23.696 9.376 23.432 8.376 23.064 7.56C22.696 6.728 22.2 6.008 21.576 5.4C20.824 4.648 19.904 4.096 18.816 3.744C17.744 3.376 16.448 3.192 14.928 3.192C13.568 3.192 12.296 3.392 11.112 3.792C9.928 4.176 8.888 4.752 7.992 5.52C7.112 6.288 6.416 7.248 5.904 8.4C5.408 9.536 5.16 10.848 5.16 12.336C5.16 13.408 5.24 14.376 5.4 15.24C5.56 16.088 5.84 16.968 6.24 17.88C8.016 17.288 10.048 16.992 12.336 16.992C13.152 16.992 14 17.04 14.88 17.136C15.76 17.232 16.616 17.392 17.448 17.616C17.624 16.752 17.712 15.88 17.712 15C17.712 14.184 17.608 13.408 17.4 12.672C17.192 11.92 16.864 11.288 16.416 10.776C16.48 11.032 16.512 11.28 16.512 11.52C16.512 12.192 16.352 12.84 16.032 13.464C15.712 14.072 15.216 14.568 14.544 14.952C13.872 15.336 13.008 15.528 11.952 15.528C11.152 15.528 10.408 15.384 9.72 15.096C9.032 14.792 8.48 14.344 8.064 13.752C7.664 13.144 7.464 12.4 7.464 11.52C7.464 10.528 7.72 9.72 8.232 9.096C8.76 8.472 9.464 8.008 10.344 7.704C11.224 7.4 12.192 7.248 13.248 7.248C14.992 7.248 16.44 7.576 17.592 8.232C18.76 8.888 19.632 9.792 20.208 10.944C20.8 12.096 21.096 13.424 21.096 14.928C21.096 16.368 20.928 17.672 20.592 18.84C21.6 19.4 22.424 20.112 23.064 20.976C23.72 21.824 24.048 22.856 24.048 24.072C24.048 25.496 23.528 26.624 22.488 27.456C21.464 28.288 19.88 28.704 17.736 28.704C16.792 28.704 15.872 28.608 14.976 28.416C14.096 28.24 13.232 27.984 12.384 27.648C11.52 27.984 10.616 28.24 9.672 28.416C8.744 28.608 7.784 28.704 6.792 28.704ZM10.656 11.424C10.656 11.92 10.784 12.32 11.04 12.624C11.312 12.912 11.696 13.056 12.192 13.056C12.608 13.056 12.96 12.928 13.248 12.672C13.536 12.416 13.68 11.936 13.68 11.232C13.68 10.96 13.648 10.696 13.584 10.44C13.52 10.168 13.432 9.912 13.32 9.672C13.256 9.672 13.176 9.672 13.08 9.672C12.664 9.672 12.264 9.72 11.88 9.816C11.512 9.896 11.216 10.064 10.992 10.32C10.768 10.576 10.656 10.944 10.656 11.424ZM12.408 19.536C10.504 19.536 8.864 19.744 7.488 20.16C8.096 21.136 8.808 22.016 9.624 22.8C10.44 23.6 11.336 24.264 12.312 24.792C13.24 24.264 14.08 23.6 14.832 22.8C15.584 22 16.192 21.08 16.656 20.04C15.984 19.864 15.28 19.736 14.544 19.656C13.808 19.576 13.096 19.536 12.408 19.536ZM20.808 23.736C20.808 23.256 20.696 22.816 20.472 22.416C20.264 22.032 19.968 21.688 19.584 21.384C19.136 22.264 18.576 23.096 17.904 23.88C17.248 24.68 16.496 25.376 15.648 25.968C16.304 26.08 16.976 26.136 17.664 26.136C18.8 26.136 19.608 25.912 20.088 25.464C20.568 25.032 20.808 24.456 20.808 23.736ZM3.912 23.712C3.912 24.448 4.152 25.032 4.632 25.464C5.112 25.912 5.912 26.136 7.032 26.136C7.784 26.136 8.496 26.072 9.168 25.944C8.272 25.352 7.472 24.704 6.768 24C6.064 23.296 5.408 22.504 4.8 21.624C4.208 22.216 3.912 22.912 3.912 23.712Z" fill="#E5E5E5"/>
</svg>
