<svg width="27" height="29" viewBox="0 0 27 29" fill="none" xmlns="http://www.w3.org/2000/svg">
<path d="M8.168 21V7.512H22.352V10.08H18.896V13.464C19.248 13.32 19.632 13.2 20.048 13.104C20.48 13.008 20.968 12.96 21.512 12.96C22.456 12.96 23.296 13.176 24.032 13.608C24.784 14.024 25.376 14.664 25.808 15.528C26.24 16.392 26.456 17.496 26.456 18.84C26.456 20.568 26.128 22.048 25.472 23.28C24.816 24.528 23.912 25.552 22.76 26.352C21.624 27.152 20.32 27.744 18.848 28.128C17.376 28.512 15.816 28.704 14.168 28.704H14.072C11.752 28.704 9.728 28.376 8 27.72C6.288 27.064 4.864 26.136 3.728 24.936C2.608 23.736 1.768 22.32 1.208 20.688C0.664 19.056 0.392 17.272 0.392 15.336V14.784C0.392 13.408 0.552 12.04 0.872 10.68C1.192 9.32 1.704 8.032 2.408 6.816C3.112 5.6 4.024 4.528 5.144 3.6C6.28 2.656 7.648 1.92 9.248 1.392C10.864 0.848 12.744 0.576 14.888 0.576C16.232 0.576 17.48 0.696 18.632 0.935999C19.8 1.16 20.928 1.488 22.016 1.92C23.104 2.336 24.2 2.832 25.304 3.408L24.032 6.12C23.008 5.56 22.024 5.072 21.08 4.656C20.152 4.224 19.176 3.888 18.152 3.648C17.128 3.408 15.984 3.288 14.72 3.288C13.152 3.288 11.704 3.504 10.376 3.936C9.048 4.368 7.888 5.04 6.896 5.952C5.92 6.864 5.16 8.048 4.616 9.504C4.072 10.96 3.8 12.712 3.8 14.76V15.408C3.8 17.584 4.168 19.472 4.904 21.072C5.64 22.672 6.752 23.904 8.24 24.768C9.744 25.632 11.64 26.064 13.928 26.064H14.12C16.84 26.064 18.976 25.456 20.528 24.24C22.096 23.04 22.88 21.28 22.88 18.96C22.88 17.76 22.672 16.888 22.256 16.344C21.856 15.8 21.272 15.528 20.504 15.528C19.96 15.528 19.424 15.68 18.896 15.984V21H15.32V10.08H11.744V21H8.168Z" fill="#E5E5E5"/>
</svg>
