<svg width="74" height="29" viewBox="0 0 74 29" fill="none" xmlns="http://www.w3.org/2000/svg">
<path d="M7.056 21.288C5.248 21.288 3.784 20.928 2.664 20.208C1.544 19.472 0.984 18.416 0.984 17.04C0.984 16.288 1.176 15.616 1.56 15.024C1.96 14.416 2.584 13.92 3.432 13.536V7.512H18.288V10.08H13.752V12.696C15.16 12.76 16.408 13 17.496 13.416C18.584 13.832 19.432 14.472 20.04 15.336C20.664 16.184 20.976 17.296 20.976 18.672C20.976 19.76 20.744 20.68 20.28 21.432C19.832 22.2 19.184 22.864 18.336 23.424C17.552 23.968 16.512 24.376 15.216 24.648C13.92 24.92 12.296 25.056 10.344 25.056H8.472C7.496 25.056 6.8 25.096 6.384 25.176C5.984 25.272 5.656 25.408 5.4 25.584C5.144 25.776 4.944 26.016 4.8 26.304C4.656 26.608 4.584 27.016 4.584 27.528C4.584 27.864 4.608 28.2 4.656 28.536L1.152 28.704C1.104 28.368 1.064 28.032 1.032 27.696C1.016 27.376 1.008 27.024 1.008 26.64C1.008 25.92 1.152 25.288 1.44 24.744C1.728 24.216 2.112 23.784 2.592 23.448C2.912 23.224 3.272 23.04 3.672 22.896C4.072 22.752 4.568 22.648 5.16 22.584C5.752 22.52 6.488 22.488 7.368 22.488H9.528C10.92 22.488 12.064 22.432 12.96 22.32C13.856 22.224 14.576 22.064 15.12 21.84C15.68 21.616 16.136 21.32 16.488 20.952C17.128 20.312 17.448 19.456 17.448 18.384C17.448 17.616 17.272 17.008 16.92 16.56C16.568 16.112 16.112 15.784 15.552 15.576C14.992 15.352 14.392 15.208 13.752 15.144V15.24C13.752 16.36 13.64 17.248 13.416 17.904C13.208 18.544 12.904 19.088 12.504 19.536C11.928 20.176 11.176 20.632 10.248 20.904C9.32 21.16 8.256 21.288 7.056 21.288ZM6.648 10.08V12.768C7.288 12.704 7.984 12.672 8.736 12.672H10.272V10.08H6.648ZM4.512 16.968C4.512 17.56 4.76 18 5.256 18.288C5.768 18.576 6.448 18.72 7.296 18.72C7.92 18.72 8.448 18.624 8.88 18.432C9.328 18.24 9.672 17.896 9.912 17.4C10.152 16.888 10.272 16.184 10.272 15.288V15.096H8.28C7.72 15.096 7.184 15.128 6.672 15.192C6.176 15.24 5.752 15.352 5.4 15.528C4.808 15.832 4.512 16.312 4.512 16.968ZM36.8426 7.224C38.3306 7.224 39.5386 7.544 40.4666 8.184C41.3946 8.808 42.0746 9.672 42.5066 10.776C42.9546 11.88 43.1786 13.128 43.1786 14.52C43.1786 15.736 43.0346 16.752 42.7466 17.568C42.4746 18.384 42.0346 19.048 41.4266 19.56C40.9946 19.928 40.5066 20.216 39.9626 20.424C39.4186 20.632 38.7626 20.784 37.9946 20.88C37.2426 20.96 36.3066 21 35.1866 21H23.7866V7.512H27.3626V18.432H31.7786V12.48C31.7786 11.488 31.8826 10.68 32.0906 10.056C32.3146 9.432 32.6346 8.912 33.0506 8.496C33.9306 7.648 35.1946 7.224 36.8426 7.224ZM37.0826 9.792C36.8746 9.792 36.6666 9.824 36.4586 9.888C36.2666 9.952 36.0906 10.064 35.9306 10.224C35.7226 10.432 35.5706 10.72 35.4746 11.088C35.3946 11.44 35.3546 12.024 35.3546 12.84V18.432H36.2666C37.1146 18.432 37.7786 18.312 38.2586 18.072C38.7546 17.816 39.0986 17.4 39.2906 16.824C39.4986 16.248 39.6026 15.48 39.6026 14.52C39.6026 13.64 39.5226 12.848 39.3626 12.144C39.2026 11.424 38.9386 10.856 38.5706 10.44C38.2026 10.008 37.7066 9.792 37.0826 9.792ZM42.3757 0.576C43.6397 0.576 44.7198 0.759999 45.6158 1.128C46.5278 1.48 47.2558 1.936 47.7998 2.496C48.1678 2.88 48.5038 3.36 48.8078 3.936C49.1118 4.496 49.3518 5.24 49.5278 6.168C49.7198 7.08 49.8158 8.272 49.8158 9.744V21H46.2398V10.68C46.2398 9.448 46.1998 8.416 46.1198 7.584C46.0398 6.736 45.8958 6.032 45.6878 5.472C45.4798 4.896 45.1838 4.416 44.7998 4.032C44.4958 3.728 44.1517 3.496 43.7677 3.336C43.3837 3.176 42.9437 3.096 42.4477 3.096C41.7597 3.096 41.2157 3.224 40.8158 3.48C40.3997 3.736 40.1037 4.064 39.9277 4.464C39.7517 4.848 39.6637 5.256 39.6637 5.688C39.6637 6.136 39.7357 6.616 39.8797 7.128C40.0077 7.624 40.2077 8.128 40.4797 8.64H36.9277C36.7197 8.256 36.5597 7.8 36.4477 7.272C36.3197 6.744 36.2557 6.232 36.2557 5.736C36.2557 4.824 36.4317 4.048 36.7837 3.408C37.1357 2.752 37.6077 2.216 38.1997 1.8C38.7917 1.384 39.4557 1.08 40.1917 0.887999C40.9117 0.679999 41.6397 0.576 42.3757 0.576ZM57.1986 22.032C57.5186 22.032 57.8466 22.04 58.1826 22.056C58.5346 22.088 58.8546 22.136 59.1426 22.2L58.9746 24.576C58.6706 24.528 58.2386 24.504 57.6786 24.504C57.2786 24.504 56.9346 24.56 56.6466 24.672C56.3746 24.8 56.2386 25.008 56.2386 25.296C56.2386 25.68 56.4546 25.928 56.8866 26.04C57.3186 26.152 57.7826 26.208 58.2786 26.208H58.9266C59.9346 26.208 60.7586 26.04 61.3986 25.704C62.0386 25.368 62.5586 24.856 62.9586 24.168C62.5746 23.832 62.2626 23.408 62.0226 22.896C61.7986 22.384 61.6706 21.752 61.6386 21H53.6226V7.512H57.1986V18.432H61.6146V12.48C61.6146 11.488 61.7186 10.68 61.9266 10.056C62.1506 9.432 62.4706 8.912 62.8866 8.496C63.7666 7.648 65.0306 7.224 66.6786 7.224C68.1666 7.224 69.3746 7.544 70.3026 8.184C71.2306 8.808 71.9106 9.672 72.3426 10.776C72.7906 11.88 73.0146 13.128 73.0146 14.52C73.0146 15.736 72.8706 16.752 72.5826 17.568C72.3106 18.384 71.8706 19.048 71.2626 19.56C70.8306 19.928 70.3426 20.216 69.7986 20.424C69.2546 20.632 68.6066 20.784 67.8546 20.88C67.1026 20.96 66.1826 21 65.0946 21C65.0946 21.368 65.1586 21.688 65.2866 21.96C65.4306 22.232 65.6546 22.44 65.9586 22.584C66.1826 22.696 66.4386 22.768 66.7266 22.8C67.0146 22.848 67.4066 22.872 67.9026 22.872H70.4466V25.416H65.9826C65.3906 26.552 64.5426 27.384 63.4386 27.912C62.3346 28.44 60.9266 28.704 59.2146 28.704H58.3266C57.4626 28.704 56.6546 28.608 55.9026 28.416C55.1666 28.224 54.5826 27.976 54.1506 27.672C53.8146 27.448 53.5106 27.136 53.2386 26.736C52.9826 26.336 52.8546 25.84 52.8546 25.248C52.8546 24.256 53.2306 23.472 53.9826 22.896C54.7346 22.32 55.8066 22.032 57.1986 22.032ZM66.9186 9.792C66.7106 9.792 66.5026 9.824 66.2946 9.888C66.1026 9.952 65.9266 10.064 65.7666 10.224C65.5586 10.432 65.4066 10.72 65.3106 11.088C65.2306 11.44 65.1906 12.024 65.1906 12.84V18.432H66.1026C66.9506 18.432 67.6146 18.312 68.0946 18.072C68.5906 17.816 68.9346 17.4 69.1266 16.824C69.3346 16.248 69.4386 15.48 69.4386 14.52C69.4386 13.64 69.3586 12.848 69.1986 12.144C69.0386 11.424 68.7746 10.856 68.4066 10.44C68.0386 10.008 67.5426 9.792 66.9186 9.792ZM62.9586 5.112C62.3826 5.112 61.9106 4.928 61.5426 4.56C61.1746 4.176 60.9906 3.696 60.9906 3.12C60.9906 2.544 61.1746 2.072 61.5426 1.704C61.9106 1.32 62.3826 1.128 62.9586 1.128C63.5186 1.128 63.9826 1.32 64.3506 1.704C64.7186 2.072 64.9026 2.544 64.9026 3.12C64.9026 3.696 64.7186 4.176 64.3506 4.56C63.9826 4.928 63.5186 5.112 62.9586 5.112Z" fill="white"/>
</svg>
